# xmcd CD database file
#
# Track frame offsets:
#	150
#	31675
#	60513
#	83268
#	111897
#	141165
#	174666
#	203524
#	229035
#	254195
#	280616
#	321879
#
# Disc length: 4667 seconds
#
# Revision: 0
# Processed by: cddbd v1.5.1PL0 Copyright (c) Steve Scherf et al.
# Submitted via: CDex 1.50
#
DISCID=9a12390c
DTITLE=Andrew Hill - Mosaic Select 16 Disc 2
DYEAR=1900
DGENRE=Jazz
TTITLE0=Illusion
TTITLE1=Poinsettia
TTITLE2=Fragments
TTITLE3=Soul Mate
TTITLE4=Illusion (Alt take)
TTITLE5=Interfusion
TTITLE6=Resolution 
TTITLE7=Chained
TTITLE8=MOMA
TTITLE9=Nine At The Bottom
TTITLE10=Six At The Top
TTITLE11=Nine At The Bottom (Alt take)
EXTD=
EXTT0=
EXTT1=
EXTT2=
EXTT3=
EXTT4=
EXTT5=
EXTT6=
EXTT7=
EXTT8=
EXTT9=
EXTT10=
EXTT11=
PLAYORDER=
